<?xml version="1.0" encoding="utf-8"?>
<!-- Generator: Adobe Illustrator 16.0.0, SVG Export Plug-In . SVG Version: 6.00 Build 0)  -->
<!DOCTYPE svg PUBLIC "-//W3C//DTD SVG 1.1//EN" "http://www.w3.org/Graphics/SVG/1.1/DTD/svg11.dtd">
<svg version="1.1" id="Layer_1" xmlns="http://www.w3.org/2000/svg" xmlns:xlink="http://www.w3.org/1999/xlink" x="0px" y="0px"
	 width="103px" height="100px" viewBox="0 0 103 100" enable-background="new 0 0 103 100" xml:space="preserve">
<path fill="#DCE0DF" d="M50.11,15.04c3.291-3.77,10.871-2.23,11.51,3.05c0.54,5.47,0.11,10.99,0.19,16.47c-1.75,0-3.5,0-5.25,0.01
	c-0.101-5.33,0.06-10.67-0.141-16c-0.641-0.09-1.92-0.26-2.561-0.35c-0.52,5.93-0.199,11.88-0.299,17.82
	c-0.041,4.56,0.119,9.25,1.869,13.53c2.66,6.661,6.391,13.14,6.801,20.47c0.189,4.28,0.43,8.63-0.25,12.88
	c-0.59,3.24-3.701,5.801-7.041,5.4c-3.52,0.09-6.379-3.03-6.589-6.42c-0.41-5.34-0.08-10.7-0.11-16.061
	c1.77,0.03,3.54,0.03,5.31,0.03c0.12,5.67-0.18,11.351,0.28,17.01c0.73-0.04,2.18-0.13,2.91-0.17c0.17-6.351,0.9-12.96-1.37-19.04
	c-2.33-7.189-6.77-13.81-7.1-21.55c-0.23-6.04,0.02-12.09-0.12-18.13C48.24,20.96,47.86,17.44,50.11,15.04z"/>
<path fill="#DCE0DF" d="M69.08,13.3c1.72,0.05,3.439,0.1,5.16,0.13c0.01,24.81,0.06,49.63-0.02,74.44
	c-1.711,0.069-3.41,0.149-5.121,0.239C68.91,63.18,68.971,38.23,69.08,13.3z"/>
<path fill="#DCE0DF" d="M82.189,13.38c3.07,0,6.181-0.3,9.211,0.3c3.16,0.77,5.06,4.07,4.84,7.2c0.01,22.33,0.07,44.66-0.03,66.99
	c-1.72,0.01-3.44,0.03-5.16,0.05c-0.25-22.97,0.25-45.94-0.25-68.9c-0.8-0.16-2.399-0.48-3.2-0.64c-0.199,23.16,0,46.33-0.1,69.49
	c-1.77,0.01-3.54,0.021-5.311,0.05C82.12,63.07,82.13,38.22,82.189,13.38z"/>
<path fill="#DCE0DF" d="M20.05,29.34c1.72,0.01,3.44,0.02,5.16,0.04c0.05,4.66,0.01,9.32,0.14,13.99
	c5.06,0.05,10.11-0.02,15.16,0.06c0,1.68,0,3.35-0.01,5.02c-5.06,0.08-10.13,0.01-15.2,0.06c-0.11,5.49,0.02,10.98-0.09,16.48
	c-1.72,0-3.45,0.01-5.17,0.02c-0.1-5.5,0.04-11-0.1-16.51c-5.09-0.04-10.19,0.06-15.28-0.12c0.02-1.64,0.04-3.28,0.06-4.92
	c5.06-0.12,10.12-0.04,15.19-0.1C20.03,38.69,20,34.01,20.05,29.34z"/>
</svg>
